%TF.GenerationSoftware,KiCad,Pcbnew,(6.0.10)*%
%TF.CreationDate,2023-02-17T15:36:48-08:00*%
%TF.ProjectId,Exercise 2,45786572-6369-4736-9520-322e6b696361,rev?*%
%TF.SameCoordinates,Original*%
%TF.FileFunction,Copper,L1,Top*%
%TF.FilePolarity,Positive*%
%FSLAX46Y46*%
G04 Gerber Fmt 4.6, Leading zero omitted, Abs format (unit mm)*
G04 Created by KiCad (PCBNEW (6.0.10)) date 2023-02-17 15:36:48*
%MOMM*%
%LPD*%
G01*
G04 APERTURE LIST*
G04 Aperture macros list*
%AMRoundRect*
0 Rectangle with rounded corners*
0 $1 Rounding radius*
0 $2 $3 $4 $5 $6 $7 $8 $9 X,Y pos of 4 corners*
0 Add a 4 corners polygon primitive as box body*
4,1,4,$2,$3,$4,$5,$6,$7,$8,$9,$2,$3,0*
0 Add four circle primitives for the rounded corners*
1,1,$1+$1,$2,$3*
1,1,$1+$1,$4,$5*
1,1,$1+$1,$6,$7*
1,1,$1+$1,$8,$9*
0 Add four rect primitives between the rounded corners*
20,1,$1+$1,$2,$3,$4,$5,0*
20,1,$1+$1,$4,$5,$6,$7,0*
20,1,$1+$1,$6,$7,$8,$9,0*
20,1,$1+$1,$8,$9,$2,$3,0*%
G04 Aperture macros list end*
%TA.AperFunction,SMDPad,CuDef*%
%ADD10RoundRect,0.250000X-0.450000X0.350000X-0.450000X-0.350000X0.450000X-0.350000X0.450000X0.350000X0*%
%TD*%
%TA.AperFunction,SMDPad,CuDef*%
%ADD11RoundRect,0.250000X0.337500X0.475000X-0.337500X0.475000X-0.337500X-0.475000X0.337500X-0.475000X0*%
%TD*%
%TA.AperFunction,SMDPad,CuDef*%
%ADD12RoundRect,0.250001X0.624999X-0.462499X0.624999X0.462499X-0.624999X0.462499X-0.624999X-0.462499X0*%
%TD*%
%TA.AperFunction,ComponentPad*%
%ADD13R,3.000000X3.000000*%
%TD*%
%TA.AperFunction,ComponentPad*%
%ADD14C,3.000000*%
%TD*%
%TA.AperFunction,SMDPad,CuDef*%
%ADD15RoundRect,0.250000X-0.425000X0.537500X-0.425000X-0.537500X0.425000X-0.537500X0.425000X0.537500X0*%
%TD*%
%TA.AperFunction,SMDPad,CuDef*%
%ADD16RoundRect,0.150000X-0.825000X-0.150000X0.825000X-0.150000X0.825000X0.150000X-0.825000X0.150000X0*%
%TD*%
%TA.AperFunction,SMDPad,CuDef*%
%ADD17R,2.290000X3.000000*%
%TD*%
%TA.AperFunction,ViaPad*%
%ADD18C,0.800000*%
%TD*%
%TA.AperFunction,Conductor*%
%ADD19C,0.250000*%
%TD*%
G04 APERTURE END LIST*
D10*
%TO.P,R4,1*%
%TO.N,/pin_3*%
X170180000Y-70120000D03*
%TO.P,R4,2*%
%TO.N,Net-(D2-Pad2)*%
X170180000Y-72120000D03*
%TD*%
D11*
%TO.P,C2,1*%
%TO.N,Net-(C2-Pad1)*%
X150897500Y-83155000D03*
%TO.P,C2,2*%
%TO.N,GND*%
X148822500Y-83155000D03*
%TD*%
D12*
%TO.P,D2,1,K*%
%TO.N,GND*%
X170180000Y-85307500D03*
%TO.P,D2,2,A*%
%TO.N,Net-(D2-Pad2)*%
X170180000Y-82332500D03*
%TD*%
D13*
%TO.P,J1,1,Pin_1*%
%TO.N,+9V*%
X139700000Y-53340000D03*
D14*
%TO.P,J1,2,Pin_2*%
%TO.N,GND*%
X144780000Y-53340000D03*
%TD*%
D15*
%TO.P,C1,1*%
%TO.N,/pin_2*%
X124570000Y-81922500D03*
%TO.P,C1,2*%
%TO.N,GND*%
X124570000Y-84797500D03*
%TD*%
D10*
%TO.P,R3,1*%
%TO.N,Net-(D1-Pad1)*%
X170180000Y-59960000D03*
%TO.P,R3,2*%
%TO.N,/pin_3*%
X170180000Y-61960000D03*
%TD*%
%TO.P,R2,1*%
%TO.N,/pin_7*%
X124460000Y-71660000D03*
%TO.P,R2,2*%
%TO.N,/pin_2*%
X124460000Y-73660000D03*
%TD*%
D16*
%TO.P,U1,1,GND*%
%TO.N,GND*%
X147385000Y-69215000D03*
%TO.P,U1,2,TR*%
%TO.N,/pin_2*%
X147385000Y-70485000D03*
%TO.P,U1,3,Q*%
%TO.N,/pin_3*%
X147385000Y-71755000D03*
%TO.P,U1,4,R*%
%TO.N,+9V*%
X147385000Y-73025000D03*
%TO.P,U1,5,CV*%
%TO.N,Net-(C2-Pad1)*%
X152335000Y-73025000D03*
%TO.P,U1,6,THR*%
%TO.N,/pin_2*%
X152335000Y-71755000D03*
%TO.P,U1,7,DIS*%
%TO.N,/pin_7*%
X152335000Y-70485000D03*
%TO.P,U1,8,VCC*%
%TO.N,+9V*%
X152335000Y-69215000D03*
D17*
%TO.P,U1,9*%
%TO.N,N/C*%
X149860000Y-71120000D03*
%TD*%
D12*
%TO.P,D1,1,K*%
%TO.N,Net-(D1-Pad1)*%
X170180000Y-54827500D03*
%TO.P,D1,2,A*%
%TO.N,+9V*%
X170180000Y-51852500D03*
%TD*%
D10*
%TO.P,R1,1*%
%TO.N,+9V*%
X124460000Y-59960000D03*
%TO.P,R1,2*%
%TO.N,/pin_7*%
X124460000Y-61960000D03*
%TD*%
D18*
%TO.N,/pin_2*%
X132080000Y-78740000D03*
X160020000Y-78740000D03*
%TO.N,GND*%
X165100000Y-81280000D03*
X152400000Y-55880000D03*
X144495000Y-66325000D03*
%TO.N,+9V*%
X144780000Y-76200000D03*
X160020000Y-76200000D03*
%TO.N,/pin_7*%
X127000000Y-68580000D03*
X154940000Y-71120000D03*
%TO.N,/pin_3*%
X142240000Y-73660000D03*
X165100000Y-66040000D03*
%TD*%
D19*
%TO.N,/pin_2*%
X124460000Y-81812500D02*
X124570000Y-81922500D01*
X132715000Y-70485000D02*
X147385000Y-70485000D01*
X157480000Y-76200000D02*
X160020000Y-78740000D01*
X153035000Y-71755000D02*
X157480000Y-76200000D01*
X124460000Y-73660000D02*
X124460000Y-78740000D01*
X152335000Y-71755000D02*
X153035000Y-71755000D01*
X124460000Y-78740000D02*
X132080000Y-78740000D01*
X124460000Y-78740000D02*
X124460000Y-81812500D01*
X124460000Y-78740000D02*
X132715000Y-70485000D01*
%TO.N,GND*%
X170180000Y-85307500D02*
X166152500Y-81280000D01*
X170180000Y-85307500D02*
X150975000Y-85307500D01*
X147385000Y-69215000D02*
X144495000Y-66325000D01*
X124570000Y-84797500D02*
X126212500Y-83155000D01*
X150975000Y-85307500D02*
X148822500Y-83155000D01*
X166152500Y-81280000D02*
X165100000Y-81280000D01*
X126212500Y-83155000D02*
X148822500Y-83155000D01*
X149860000Y-53340000D02*
X152400000Y-55880000D01*
X144780000Y-53340000D02*
X149860000Y-53340000D01*
%TO.N,Net-(C2-Pad1)*%
X152335000Y-81717500D02*
X152335000Y-73025000D01*
X150897500Y-83155000D02*
X152335000Y-81717500D01*
%TO.N,Net-(D1-Pad1)*%
X170180000Y-59960000D02*
X170180000Y-54827500D01*
%TO.N,+9V*%
X131080000Y-53340000D02*
X124460000Y-59960000D01*
X152335000Y-69215000D02*
X154305000Y-69215000D01*
X141525000Y-51515000D02*
X139700000Y-53340000D01*
X147385000Y-73025000D02*
X144780000Y-75630000D01*
X157480000Y-66040000D02*
X157480000Y-73660000D01*
X169842500Y-51515000D02*
X141525000Y-51515000D01*
X154305000Y-69215000D02*
X157480000Y-66040000D01*
X170180000Y-51852500D02*
X169842500Y-51515000D01*
X139700000Y-56580000D02*
X152335000Y-69215000D01*
X157480000Y-73660000D02*
X160020000Y-76200000D01*
X139700000Y-56580000D02*
X139700000Y-53340000D01*
X144780000Y-75630000D02*
X144780000Y-76200000D01*
X139700000Y-53340000D02*
X131080000Y-53340000D01*
%TO.N,Net-(D2-Pad2)*%
X170180000Y-82332500D02*
X170180000Y-72120000D01*
%TO.N,/pin_7*%
X124460000Y-71660000D02*
X127000000Y-69120000D01*
X127000000Y-69120000D02*
X127000000Y-68580000D01*
X152970000Y-71120000D02*
X154940000Y-71120000D01*
X124460000Y-61960000D02*
X124460000Y-71660000D01*
X152335000Y-70485000D02*
X152970000Y-71120000D01*
%TO.N,/pin_3*%
X144145000Y-71755000D02*
X142240000Y-73660000D01*
X170180000Y-66040000D02*
X165100000Y-66040000D01*
X170180000Y-70120000D02*
X170180000Y-66040000D01*
X147385000Y-71755000D02*
X144145000Y-71755000D01*
X170180000Y-66040000D02*
X170180000Y-61960000D01*
%TD*%
M02*
