%TF.GenerationSoftware,KiCad,Pcbnew,(6.0.10)*%
%TF.CreationDate,2023-02-17T15:36:48-08:00*%
%TF.ProjectId,Exercise 2,45786572-6369-4736-9520-322e6b696361,rev?*%
%TF.SameCoordinates,Original*%
%TF.FileFunction,Legend,Top*%
%TF.FilePolarity,Positive*%
%FSLAX46Y46*%
G04 Gerber Fmt 4.6, Leading zero omitted, Abs format (unit mm)*
G04 Created by KiCad (PCBNEW (6.0.10)) date 2023-02-17 15:36:48*
%MOMM*%
%LPD*%
G01*
G04 APERTURE LIST*
%ADD10C,0.150000*%
%ADD11C,0.120000*%
G04 APERTURE END LIST*
D10*
X105188571Y-91368571D02*
X105521904Y-91368571D01*
X105664761Y-91892380D02*
X105188571Y-91892380D01*
X105188571Y-90892380D01*
X105664761Y-90892380D01*
X106093333Y-91368571D02*
X106426666Y-91368571D01*
X106569523Y-91892380D02*
X106093333Y-91892380D01*
X106093333Y-90892380D01*
X106569523Y-90892380D01*
X106950476Y-90987619D02*
X106998095Y-90940000D01*
X107093333Y-90892380D01*
X107331428Y-90892380D01*
X107426666Y-90940000D01*
X107474285Y-90987619D01*
X107521904Y-91082857D01*
X107521904Y-91178095D01*
X107474285Y-91320952D01*
X106902857Y-91892380D01*
X107521904Y-91892380D01*
X108140952Y-90892380D02*
X108236190Y-90892380D01*
X108331428Y-90940000D01*
X108379047Y-90987619D01*
X108426666Y-91082857D01*
X108474285Y-91273333D01*
X108474285Y-91511428D01*
X108426666Y-91701904D01*
X108379047Y-91797142D01*
X108331428Y-91844761D01*
X108236190Y-91892380D01*
X108140952Y-91892380D01*
X108045714Y-91844761D01*
X107998095Y-91797142D01*
X107950476Y-91701904D01*
X107902857Y-91511428D01*
X107902857Y-91273333D01*
X107950476Y-91082857D01*
X107998095Y-90987619D01*
X108045714Y-90940000D01*
X108140952Y-90892380D01*
X109426666Y-91892380D02*
X108855238Y-91892380D01*
X109140952Y-91892380D02*
X109140952Y-90892380D01*
X109045714Y-91035238D01*
X108950476Y-91130476D01*
X108855238Y-91178095D01*
X110617142Y-91892380D02*
X110617142Y-90892380D01*
X110617142Y-91368571D02*
X111188571Y-91368571D01*
X111188571Y-91892380D02*
X111188571Y-90892380D01*
X112093333Y-91892380D02*
X112093333Y-91368571D01*
X112045714Y-91273333D01*
X111950476Y-91225714D01*
X111760000Y-91225714D01*
X111664761Y-91273333D01*
X112093333Y-91844761D02*
X111998095Y-91892380D01*
X111760000Y-91892380D01*
X111664761Y-91844761D01*
X111617142Y-91749523D01*
X111617142Y-91654285D01*
X111664761Y-91559047D01*
X111760000Y-91511428D01*
X111998095Y-91511428D01*
X112093333Y-91463809D01*
X112712380Y-91892380D02*
X112617142Y-91844761D01*
X112569523Y-91797142D01*
X112521904Y-91701904D01*
X112521904Y-91416190D01*
X112569523Y-91320952D01*
X112617142Y-91273333D01*
X112712380Y-91225714D01*
X112855238Y-91225714D01*
X112950476Y-91273333D01*
X112998095Y-91320952D01*
X113045714Y-91416190D01*
X113045714Y-91701904D01*
X112998095Y-91797142D01*
X112950476Y-91844761D01*
X112855238Y-91892380D01*
X112712380Y-91892380D01*
X113902857Y-91892380D02*
X113902857Y-90892380D01*
X113902857Y-91844761D02*
X113807619Y-91892380D01*
X113617142Y-91892380D01*
X113521904Y-91844761D01*
X113474285Y-91797142D01*
X113426666Y-91701904D01*
X113426666Y-91416190D01*
X113474285Y-91320952D01*
X113521904Y-91273333D01*
X113617142Y-91225714D01*
X113807619Y-91225714D01*
X113902857Y-91273333D01*
X114521904Y-91892380D02*
X114426666Y-91844761D01*
X114379047Y-91797142D01*
X114331428Y-91701904D01*
X114331428Y-91416190D01*
X114379047Y-91320952D01*
X114426666Y-91273333D01*
X114521904Y-91225714D01*
X114664761Y-91225714D01*
X114760000Y-91273333D01*
X114807619Y-91320952D01*
X114855238Y-91416190D01*
X114855238Y-91701904D01*
X114807619Y-91797142D01*
X114760000Y-91844761D01*
X114664761Y-91892380D01*
X114521904Y-91892380D01*
X115283809Y-91225714D02*
X115283809Y-91892380D01*
X115283809Y-91320952D02*
X115331428Y-91273333D01*
X115426666Y-91225714D01*
X115569523Y-91225714D01*
X115664761Y-91273333D01*
X115712380Y-91368571D01*
X115712380Y-91892380D01*
X116617142Y-91225714D02*
X116617142Y-92035238D01*
X116569523Y-92130476D01*
X116521904Y-92178095D01*
X116426666Y-92225714D01*
X116283809Y-92225714D01*
X116188571Y-92178095D01*
X116617142Y-91844761D02*
X116521904Y-91892380D01*
X116331428Y-91892380D01*
X116236190Y-91844761D01*
X116188571Y-91797142D01*
X116140952Y-91701904D01*
X116140952Y-91416190D01*
X116188571Y-91320952D01*
X116236190Y-91273333D01*
X116331428Y-91225714D01*
X116521904Y-91225714D01*
X116617142Y-91273333D01*
X117760000Y-90892380D02*
X118426666Y-90892380D01*
X117760000Y-91892380D01*
X118426666Y-91892380D01*
%TO.C,R4*%
X172282380Y-71286666D02*
X171806190Y-71620000D01*
X172282380Y-71858095D02*
X171282380Y-71858095D01*
X171282380Y-71477142D01*
X171330000Y-71381904D01*
X171377619Y-71334285D01*
X171472857Y-71286666D01*
X171615714Y-71286666D01*
X171710952Y-71334285D01*
X171758571Y-71381904D01*
X171806190Y-71477142D01*
X171806190Y-71858095D01*
X171615714Y-70429523D02*
X172282380Y-70429523D01*
X171234761Y-70667619D02*
X171949047Y-70905714D01*
X171949047Y-70286666D01*
%TO.C,C2*%
X149693333Y-85192142D02*
X149645714Y-85239761D01*
X149502857Y-85287380D01*
X149407619Y-85287380D01*
X149264761Y-85239761D01*
X149169523Y-85144523D01*
X149121904Y-85049285D01*
X149074285Y-84858809D01*
X149074285Y-84715952D01*
X149121904Y-84525476D01*
X149169523Y-84430238D01*
X149264761Y-84335000D01*
X149407619Y-84287380D01*
X149502857Y-84287380D01*
X149645714Y-84335000D01*
X149693333Y-84382619D01*
X150074285Y-84382619D02*
X150121904Y-84335000D01*
X150217142Y-84287380D01*
X150455238Y-84287380D01*
X150550476Y-84335000D01*
X150598095Y-84382619D01*
X150645714Y-84477857D01*
X150645714Y-84573095D01*
X150598095Y-84715952D01*
X150026666Y-85287380D01*
X150645714Y-85287380D01*
%TO.C,D2*%
X168812380Y-84558095D02*
X167812380Y-84558095D01*
X167812380Y-84320000D01*
X167860000Y-84177142D01*
X167955238Y-84081904D01*
X168050476Y-84034285D01*
X168240952Y-83986666D01*
X168383809Y-83986666D01*
X168574285Y-84034285D01*
X168669523Y-84081904D01*
X168764761Y-84177142D01*
X168812380Y-84320000D01*
X168812380Y-84558095D01*
X167907619Y-83605714D02*
X167860000Y-83558095D01*
X167812380Y-83462857D01*
X167812380Y-83224761D01*
X167860000Y-83129523D01*
X167907619Y-83081904D01*
X168002857Y-83034285D01*
X168098095Y-83034285D01*
X168240952Y-83081904D01*
X168812380Y-83653333D01*
X168812380Y-83034285D01*
%TO.C,J1*%
X141906666Y-47712380D02*
X141906666Y-48426666D01*
X141859047Y-48569523D01*
X141763809Y-48664761D01*
X141620952Y-48712380D01*
X141525714Y-48712380D01*
X142906666Y-48712380D02*
X142335238Y-48712380D01*
X142620952Y-48712380D02*
X142620952Y-47712380D01*
X142525714Y-47855238D01*
X142430476Y-47950476D01*
X142335238Y-47998095D01*
%TO.C,C1*%
X126677142Y-83526666D02*
X126724761Y-83574285D01*
X126772380Y-83717142D01*
X126772380Y-83812380D01*
X126724761Y-83955238D01*
X126629523Y-84050476D01*
X126534285Y-84098095D01*
X126343809Y-84145714D01*
X126200952Y-84145714D01*
X126010476Y-84098095D01*
X125915238Y-84050476D01*
X125820000Y-83955238D01*
X125772380Y-83812380D01*
X125772380Y-83717142D01*
X125820000Y-83574285D01*
X125867619Y-83526666D01*
X126772380Y-82574285D02*
X126772380Y-83145714D01*
X126772380Y-82860000D02*
X125772380Y-82860000D01*
X125915238Y-82955238D01*
X126010476Y-83050476D01*
X126058095Y-83145714D01*
%TO.C,R3*%
X172282380Y-61126666D02*
X171806190Y-61460000D01*
X172282380Y-61698095D02*
X171282380Y-61698095D01*
X171282380Y-61317142D01*
X171330000Y-61221904D01*
X171377619Y-61174285D01*
X171472857Y-61126666D01*
X171615714Y-61126666D01*
X171710952Y-61174285D01*
X171758571Y-61221904D01*
X171806190Y-61317142D01*
X171806190Y-61698095D01*
X171282380Y-60793333D02*
X171282380Y-60174285D01*
X171663333Y-60507619D01*
X171663333Y-60364761D01*
X171710952Y-60269523D01*
X171758571Y-60221904D01*
X171853809Y-60174285D01*
X172091904Y-60174285D01*
X172187142Y-60221904D01*
X172234761Y-60269523D01*
X172282380Y-60364761D01*
X172282380Y-60650476D01*
X172234761Y-60745714D01*
X172187142Y-60793333D01*
%TO.C,R2*%
X126562380Y-72826666D02*
X126086190Y-73160000D01*
X126562380Y-73398095D02*
X125562380Y-73398095D01*
X125562380Y-73017142D01*
X125610000Y-72921904D01*
X125657619Y-72874285D01*
X125752857Y-72826666D01*
X125895714Y-72826666D01*
X125990952Y-72874285D01*
X126038571Y-72921904D01*
X126086190Y-73017142D01*
X126086190Y-73398095D01*
X125657619Y-72445714D02*
X125610000Y-72398095D01*
X125562380Y-72302857D01*
X125562380Y-72064761D01*
X125610000Y-71969523D01*
X125657619Y-71921904D01*
X125752857Y-71874285D01*
X125848095Y-71874285D01*
X125990952Y-71921904D01*
X126562380Y-72493333D01*
X126562380Y-71874285D01*
%TO.C,U1*%
X149098095Y-67172380D02*
X149098095Y-67981904D01*
X149145714Y-68077142D01*
X149193333Y-68124761D01*
X149288571Y-68172380D01*
X149479047Y-68172380D01*
X149574285Y-68124761D01*
X149621904Y-68077142D01*
X149669523Y-67981904D01*
X149669523Y-67172380D01*
X150669523Y-68172380D02*
X150098095Y-68172380D01*
X150383809Y-68172380D02*
X150383809Y-67172380D01*
X150288571Y-67315238D01*
X150193333Y-67410476D01*
X150098095Y-67458095D01*
%TO.C,D1*%
X168812380Y-54078095D02*
X167812380Y-54078095D01*
X167812380Y-53840000D01*
X167860000Y-53697142D01*
X167955238Y-53601904D01*
X168050476Y-53554285D01*
X168240952Y-53506666D01*
X168383809Y-53506666D01*
X168574285Y-53554285D01*
X168669523Y-53601904D01*
X168764761Y-53697142D01*
X168812380Y-53840000D01*
X168812380Y-54078095D01*
X168812380Y-52554285D02*
X168812380Y-53125714D01*
X168812380Y-52840000D02*
X167812380Y-52840000D01*
X167955238Y-52935238D01*
X168050476Y-53030476D01*
X168098095Y-53125714D01*
%TO.C,R1*%
X126562380Y-61126666D02*
X126086190Y-61460000D01*
X126562380Y-61698095D02*
X125562380Y-61698095D01*
X125562380Y-61317142D01*
X125610000Y-61221904D01*
X125657619Y-61174285D01*
X125752857Y-61126666D01*
X125895714Y-61126666D01*
X125990952Y-61174285D01*
X126038571Y-61221904D01*
X126086190Y-61317142D01*
X126086190Y-61698095D01*
X126562380Y-60174285D02*
X126562380Y-60745714D01*
X126562380Y-60460000D02*
X125562380Y-60460000D01*
X125705238Y-60555238D01*
X125800476Y-60650476D01*
X125848095Y-60745714D01*
D11*
%TO.C,R4*%
X169445000Y-70892936D02*
X169445000Y-71347064D01*
X170915000Y-70892936D02*
X170915000Y-71347064D01*
%TO.C,C2*%
X150121252Y-83890000D02*
X149598748Y-83890000D01*
X150121252Y-82420000D02*
X149598748Y-82420000D01*
%TO.C,D2*%
X169045000Y-82220000D02*
X169045000Y-86280000D01*
X169045000Y-86280000D02*
X171315000Y-86280000D01*
X171315000Y-86280000D02*
X171315000Y-82220000D01*
%TO.C,J1*%
X147320000Y-55880000D02*
X137160000Y-55880000D01*
X137160000Y-49530000D02*
X137160000Y-57150000D01*
X147320000Y-57150000D02*
X147320000Y-49530000D01*
X137160000Y-57150000D02*
X147320000Y-57150000D01*
X147320000Y-49530000D02*
X137160000Y-49530000D01*
%TO.C,C1*%
X125505000Y-80875000D02*
X123635000Y-80875000D01*
X125505000Y-84960000D02*
X125505000Y-80875000D01*
X123635000Y-80875000D02*
X123635000Y-84960000D01*
%TO.C,R3*%
X170915000Y-60732936D02*
X170915000Y-61187064D01*
X169445000Y-60732936D02*
X169445000Y-61187064D01*
%TO.C,R2*%
X125195000Y-72432936D02*
X125195000Y-72887064D01*
X123725000Y-72432936D02*
X123725000Y-72887064D01*
%TO.C,U1*%
X149860000Y-68560000D02*
X151810000Y-68560000D01*
X149860000Y-68560000D02*
X146410000Y-68560000D01*
X149860000Y-73680000D02*
X151810000Y-73680000D01*
X149860000Y-73680000D02*
X147910000Y-73680000D01*
%TO.C,D1*%
X169045000Y-51740000D02*
X169045000Y-55800000D01*
X169045000Y-55800000D02*
X171315000Y-55800000D01*
X171315000Y-55800000D02*
X171315000Y-51740000D01*
%TO.C,R1*%
X125195000Y-60732936D02*
X125195000Y-61187064D01*
X123725000Y-60732936D02*
X123725000Y-61187064D01*
%TD*%
M02*
