%TF.GenerationSoftware,KiCad,Pcbnew,(6.0.10)*%
%TF.CreationDate,2023-02-17T15:21:58-08:00*%
%TF.ProjectId,Exercise 1,45786572-6369-4736-9520-312e6b696361,rev?*%
%TF.SameCoordinates,Original*%
%TF.FileFunction,Legend,Top*%
%TF.FilePolarity,Positive*%
%FSLAX46Y46*%
G04 Gerber Fmt 4.6, Leading zero omitted, Abs format (unit mm)*
G04 Created by KiCad (PCBNEW (6.0.10)) date 2023-02-17 15:21:58*
%MOMM*%
%LPD*%
G01*
G04 APERTURE LIST*
%ADD10C,0.150000*%
%ADD11C,0.120000*%
G04 APERTURE END LIST*
D10*
X143288571Y-91368571D02*
X143621904Y-91368571D01*
X143764761Y-91892380D02*
X143288571Y-91892380D01*
X143288571Y-90892380D01*
X143764761Y-90892380D01*
X144193333Y-91368571D02*
X144526666Y-91368571D01*
X144669523Y-91892380D02*
X144193333Y-91892380D01*
X144193333Y-90892380D01*
X144669523Y-90892380D01*
X145050476Y-90987619D02*
X145098095Y-90940000D01*
X145193333Y-90892380D01*
X145431428Y-90892380D01*
X145526666Y-90940000D01*
X145574285Y-90987619D01*
X145621904Y-91082857D01*
X145621904Y-91178095D01*
X145574285Y-91320952D01*
X145002857Y-91892380D01*
X145621904Y-91892380D01*
X146240952Y-90892380D02*
X146336190Y-90892380D01*
X146431428Y-90940000D01*
X146479047Y-90987619D01*
X146526666Y-91082857D01*
X146574285Y-91273333D01*
X146574285Y-91511428D01*
X146526666Y-91701904D01*
X146479047Y-91797142D01*
X146431428Y-91844761D01*
X146336190Y-91892380D01*
X146240952Y-91892380D01*
X146145714Y-91844761D01*
X146098095Y-91797142D01*
X146050476Y-91701904D01*
X146002857Y-91511428D01*
X146002857Y-91273333D01*
X146050476Y-91082857D01*
X146098095Y-90987619D01*
X146145714Y-90940000D01*
X146240952Y-90892380D01*
X147526666Y-91892380D02*
X146955238Y-91892380D01*
X147240952Y-91892380D02*
X147240952Y-90892380D01*
X147145714Y-91035238D01*
X147050476Y-91130476D01*
X146955238Y-91178095D01*
X148717142Y-91892380D02*
X148717142Y-90892380D01*
X148717142Y-91368571D02*
X149288571Y-91368571D01*
X149288571Y-91892380D02*
X149288571Y-90892380D01*
X150193333Y-91892380D02*
X150193333Y-91368571D01*
X150145714Y-91273333D01*
X150050476Y-91225714D01*
X149860000Y-91225714D01*
X149764761Y-91273333D01*
X150193333Y-91844761D02*
X150098095Y-91892380D01*
X149860000Y-91892380D01*
X149764761Y-91844761D01*
X149717142Y-91749523D01*
X149717142Y-91654285D01*
X149764761Y-91559047D01*
X149860000Y-91511428D01*
X150098095Y-91511428D01*
X150193333Y-91463809D01*
X150812380Y-91892380D02*
X150717142Y-91844761D01*
X150669523Y-91797142D01*
X150621904Y-91701904D01*
X150621904Y-91416190D01*
X150669523Y-91320952D01*
X150717142Y-91273333D01*
X150812380Y-91225714D01*
X150955238Y-91225714D01*
X151050476Y-91273333D01*
X151098095Y-91320952D01*
X151145714Y-91416190D01*
X151145714Y-91701904D01*
X151098095Y-91797142D01*
X151050476Y-91844761D01*
X150955238Y-91892380D01*
X150812380Y-91892380D01*
X152002857Y-91892380D02*
X152002857Y-90892380D01*
X152002857Y-91844761D02*
X151907619Y-91892380D01*
X151717142Y-91892380D01*
X151621904Y-91844761D01*
X151574285Y-91797142D01*
X151526666Y-91701904D01*
X151526666Y-91416190D01*
X151574285Y-91320952D01*
X151621904Y-91273333D01*
X151717142Y-91225714D01*
X151907619Y-91225714D01*
X152002857Y-91273333D01*
X152621904Y-91892380D02*
X152526666Y-91844761D01*
X152479047Y-91797142D01*
X152431428Y-91701904D01*
X152431428Y-91416190D01*
X152479047Y-91320952D01*
X152526666Y-91273333D01*
X152621904Y-91225714D01*
X152764761Y-91225714D01*
X152860000Y-91273333D01*
X152907619Y-91320952D01*
X152955238Y-91416190D01*
X152955238Y-91701904D01*
X152907619Y-91797142D01*
X152860000Y-91844761D01*
X152764761Y-91892380D01*
X152621904Y-91892380D01*
X153383809Y-91225714D02*
X153383809Y-91892380D01*
X153383809Y-91320952D02*
X153431428Y-91273333D01*
X153526666Y-91225714D01*
X153669523Y-91225714D01*
X153764761Y-91273333D01*
X153812380Y-91368571D01*
X153812380Y-91892380D01*
X154717142Y-91225714D02*
X154717142Y-92035238D01*
X154669523Y-92130476D01*
X154621904Y-92178095D01*
X154526666Y-92225714D01*
X154383809Y-92225714D01*
X154288571Y-92178095D01*
X154717142Y-91844761D02*
X154621904Y-91892380D01*
X154431428Y-91892380D01*
X154336190Y-91844761D01*
X154288571Y-91797142D01*
X154240952Y-91701904D01*
X154240952Y-91416190D01*
X154288571Y-91320952D01*
X154336190Y-91273333D01*
X154431428Y-91225714D01*
X154621904Y-91225714D01*
X154717142Y-91273333D01*
X155860000Y-90892380D02*
X156526666Y-90892380D01*
X155860000Y-91892380D01*
X156526666Y-91892380D01*
%TO.C,R1*%
X223353333Y-50172380D02*
X223020000Y-49696190D01*
X222781904Y-50172380D02*
X222781904Y-49172380D01*
X223162857Y-49172380D01*
X223258095Y-49220000D01*
X223305714Y-49267619D01*
X223353333Y-49362857D01*
X223353333Y-49505714D01*
X223305714Y-49600952D01*
X223258095Y-49648571D01*
X223162857Y-49696190D01*
X222781904Y-49696190D01*
X224305714Y-50172380D02*
X223734285Y-50172380D01*
X224020000Y-50172380D02*
X224020000Y-49172380D01*
X223924761Y-49315238D01*
X223829523Y-49410476D01*
X223734285Y-49458095D01*
%TO.C,SW1*%
X191749166Y-50542261D02*
X191892023Y-50589880D01*
X192130119Y-50589880D01*
X192225357Y-50542261D01*
X192272976Y-50494642D01*
X192320595Y-50399404D01*
X192320595Y-50304166D01*
X192272976Y-50208928D01*
X192225357Y-50161309D01*
X192130119Y-50113690D01*
X191939642Y-50066071D01*
X191844404Y-50018452D01*
X191796785Y-49970833D01*
X191749166Y-49875595D01*
X191749166Y-49780357D01*
X191796785Y-49685119D01*
X191844404Y-49637500D01*
X191939642Y-49589880D01*
X192177738Y-49589880D01*
X192320595Y-49637500D01*
X192653928Y-49589880D02*
X192892023Y-50589880D01*
X193082500Y-49875595D01*
X193272976Y-50589880D01*
X193511071Y-49589880D01*
X194415833Y-50589880D02*
X193844404Y-50589880D01*
X194130119Y-50589880D02*
X194130119Y-49589880D01*
X194034880Y-49732738D01*
X193939642Y-49827976D01*
X193844404Y-49875595D01*
%TO.C,C1*%
X199687142Y-78406666D02*
X199734761Y-78454285D01*
X199782380Y-78597142D01*
X199782380Y-78692380D01*
X199734761Y-78835238D01*
X199639523Y-78930476D01*
X199544285Y-78978095D01*
X199353809Y-79025714D01*
X199210952Y-79025714D01*
X199020476Y-78978095D01*
X198925238Y-78930476D01*
X198830000Y-78835238D01*
X198782380Y-78692380D01*
X198782380Y-78597142D01*
X198830000Y-78454285D01*
X198877619Y-78406666D01*
X199782380Y-77454285D02*
X199782380Y-78025714D01*
X199782380Y-77740000D02*
X198782380Y-77740000D01*
X198925238Y-77835238D01*
X199020476Y-77930476D01*
X199068095Y-78025714D01*
%TO.C,V1*%
X153090476Y-72752380D02*
X153423809Y-73752380D01*
X153757142Y-72752380D01*
X154614285Y-73752380D02*
X154042857Y-73752380D01*
X154328571Y-73752380D02*
X154328571Y-72752380D01*
X154233333Y-72895238D01*
X154138095Y-72990476D01*
X154042857Y-73038095D01*
%TO.C,D1*%
X231671904Y-70152380D02*
X231671904Y-69152380D01*
X231910000Y-69152380D01*
X232052857Y-69200000D01*
X232148095Y-69295238D01*
X232195714Y-69390476D01*
X232243333Y-69580952D01*
X232243333Y-69723809D01*
X232195714Y-69914285D01*
X232148095Y-70009523D01*
X232052857Y-70104761D01*
X231910000Y-70152380D01*
X231671904Y-70152380D01*
X233195714Y-70152380D02*
X232624285Y-70152380D01*
X232910000Y-70152380D02*
X232910000Y-69152380D01*
X232814761Y-69295238D01*
X232719523Y-69390476D01*
X232624285Y-69438095D01*
%TO.C,R2*%
X162393333Y-50172380D02*
X162060000Y-49696190D01*
X161821904Y-50172380D02*
X161821904Y-49172380D01*
X162202857Y-49172380D01*
X162298095Y-49220000D01*
X162345714Y-49267619D01*
X162393333Y-49362857D01*
X162393333Y-49505714D01*
X162345714Y-49600952D01*
X162298095Y-49648571D01*
X162202857Y-49696190D01*
X161821904Y-49696190D01*
X162774285Y-49267619D02*
X162821904Y-49220000D01*
X162917142Y-49172380D01*
X163155238Y-49172380D01*
X163250476Y-49220000D01*
X163298095Y-49267619D01*
X163345714Y-49362857D01*
X163345714Y-49458095D01*
X163298095Y-49600952D01*
X162726666Y-50172380D01*
X163345714Y-50172380D01*
D11*
%TO.C,R1*%
X232240000Y-53340000D02*
X231390000Y-53340000D01*
X231390000Y-55960000D02*
X231390000Y-50720000D01*
X231390000Y-50720000D02*
X215650000Y-50720000D01*
X215650000Y-50720000D02*
X215650000Y-55960000D01*
X214800000Y-53340000D02*
X215650000Y-53340000D01*
X215650000Y-55960000D02*
X231390000Y-55960000D01*
%TO.C,SW1*%
X200082500Y-51737500D02*
X200082500Y-56937500D01*
X188132500Y-50987500D02*
X198032500Y-50987500D01*
X185782500Y-51337500D02*
X185782500Y-50037500D01*
X185782500Y-50037500D02*
X187082500Y-50037500D01*
X198032500Y-57687500D02*
X188132500Y-57687500D01*
X186082500Y-56937500D02*
X186082500Y-51737500D01*
%TO.C,C1*%
X198200000Y-78240000D02*
G75*
G03*
X198200000Y-78240000I-2620000J0D01*
G01*
%TO.C,V1*%
X152600000Y-74190000D02*
X152300000Y-74190000D01*
X150840000Y-75700000D02*
X151450000Y-75700000D01*
X151450000Y-78500000D02*
X156350000Y-78500000D01*
X153900000Y-78500000D02*
X153900000Y-78000000D01*
X153400000Y-74390000D02*
X153400000Y-75000000D01*
X156960000Y-79110000D02*
X156960000Y-74390000D01*
X152600000Y-74390000D02*
X152600000Y-74190000D01*
X156960000Y-75700000D02*
X156350000Y-75700000D01*
X153800000Y-78000000D02*
X154000000Y-78000000D01*
X153800000Y-78500000D02*
X153800000Y-78000000D01*
X150840000Y-77000000D02*
X151450000Y-77000000D01*
X150540000Y-74090000D02*
X150540000Y-75340000D01*
X151450000Y-75000000D02*
X151450000Y-78500000D01*
X152300000Y-74190000D02*
X152300000Y-74390000D01*
X153400000Y-75000000D02*
X151450000Y-75000000D01*
X156350000Y-75000000D02*
X154400000Y-75000000D01*
X154400000Y-75000000D02*
X154400000Y-74390000D01*
X150840000Y-74390000D02*
X150840000Y-79110000D01*
X156350000Y-78500000D02*
X156350000Y-75000000D01*
X154000000Y-78000000D02*
X154000000Y-78500000D01*
X152600000Y-74290000D02*
X152300000Y-74290000D01*
X156960000Y-74390000D02*
X150840000Y-74390000D01*
X150840000Y-79110000D02*
X156960000Y-79110000D01*
X156960000Y-77000000D02*
X156350000Y-77000000D01*
X151790000Y-74090000D02*
X150540000Y-74090000D01*
%TO.C,D1*%
X229850000Y-72115000D02*
X229850000Y-75205000D01*
X235400000Y-73660462D02*
G75*
G03*
X229850000Y-72115170I-2990000J462D01*
G01*
X229850000Y-75204830D02*
G75*
G03*
X235400000Y-73659538I2560000J1544830D01*
G01*
X234910000Y-73660000D02*
G75*
G03*
X234910000Y-73660000I-2500000J0D01*
G01*
%TO.C,R2*%
X153840000Y-53340000D02*
X154690000Y-53340000D01*
X154690000Y-50720000D02*
X154690000Y-55960000D01*
X170430000Y-50720000D02*
X154690000Y-50720000D01*
X171280000Y-53340000D02*
X170430000Y-53340000D01*
X154690000Y-55960000D02*
X170430000Y-55960000D01*
X170430000Y-55960000D02*
X170430000Y-50720000D01*
%TD*%
M02*
